HIERARCHY
ROOT Hips
{
	OFFSET 0.000000 0.000000 0.000000
	CHANNELS 6 Xposition Yposition Zposition Xrotation Yrotation Zrotation
	JOINT LeftUpLeg_virtual
	{
		OFFSET 0.000000 0.000000 0.000000
		CHANNELS 3 Xrotation Yrotation Zrotation
		JOINT LeftUpLeg
		{
			OFFSET 10.205400 -3.823500 0.155100
			CHANNELS 3 Xrotation Yrotation Zrotation
			JOINT LeftLeg
			{
				OFFSET 0.708757 -12.982077 0.567790
				CHANNELS 3 Xrotation Yrotation Zrotation
				JOINT LeftFoot
				{
					OFFSET -0.708756 -10.717838 -2.184338
					CHANNELS 3 Xrotation Yrotation Zrotation
					JOINT LeftToeBase
					{
						OFFSET 0.108149 -7.191104 7.560241
						CHANNELS 3 Xrotation Yrotation Zrotation
						JOINT LeftToe_End
						{
							OFFSET 0.070230 0.081724 4.490308
							CHANNELS 3 Xrotation Yrotation Zrotation
							End Site
							{
								OFFSET 0 0 0
							}
						}
					}
				}
			}
		}
	}
	JOINT RightUpLeg_virtual
	{
		OFFSET 0.000000 0.000000 0.000000
		CHANNELS 3 Xrotation Yrotation Zrotation
		JOINT RightUpLeg
		{
			OFFSET -10.205400 -3.823500 0.005500
			CHANNELS 3 Xrotation Yrotation Zrotation
			JOINT RightLeg
			{
				OFFSET -0.708756 -12.982134 0.610632
				CHANNELS 3 Xrotation Yrotation Zrotation
				JOINT RightFoot
				{
					OFFSET 0.708754 -10.717769 -1.945823
					CHANNELS 3 Xrotation Yrotation Zrotation
					JOINT RightToeBase
					{
						OFFSET -0.108140 -7.191069 7.372968
						CHANNELS 3 Xrotation Yrotation Zrotation
						JOINT RightToe_End
						{
							OFFSET -0.070227 0.081735 4.479403
							CHANNELS 3 Xrotation Yrotation Zrotation
							End Site
							{
								OFFSET 0 0 0
							}
						}
					}
				}
			}
		}
	}
	JOINT Spine_virtual
	{
		OFFSET 0.000000 0.000000 0.000000
		CHANNELS 3 Xrotation Yrotation Zrotation
		JOINT Spine
		{
			OFFSET 0.000000 6.876099 0.125700
			CHANNELS 3 Xrotation Yrotation Zrotation
			JOINT Spine1
			{
				OFFSET 0.000000 5.730043 0.104720
				CHANNELS 3 Xrotation Yrotation Zrotation
				JOINT Spine1_split
				{
					OFFSET 0.000000 5.730043 0.104720
					CHANNELS 3 Xrotation Yrotation Zrotation
					JOINT Spine2
					{
						OFFSET 0.000000 5.730043 0.104720
						CHANNELS 3 Xrotation Yrotation Zrotation
						JOINT Neck_virtual
						{
							OFFSET 0.000000 0.000000 0.000000
							CHANNELS 3 Xrotation Yrotation Zrotation
							JOINT Neck
							{
								OFFSET 0.000000 10.314075 0.188496
								CHANNELS 3 Xrotation Yrotation Zrotation
								JOINT Head
								{
									OFFSET 0.000000 7.643700 -2.377400
									CHANNELS 3 Xrotation Yrotation Zrotation
									JOINT HeadTop_End
									{
										OFFSET 0.000000 43.788605 -13.619600
										CHANNELS 3 Xrotation Yrotation Zrotation
										End Site
										{
											OFFSET 0 0 0
										}
									}
								}
							}
						}
						JOINT LeftShoulder_virtual
						{
							OFFSET 0.000000 0.000000 0.000000
							CHANNELS 3 Xrotation Yrotation Zrotation
							JOINT LeftShoulder
							{
								OFFSET 2.196100 4.412489 0.087492
								CHANNELS 3 Xrotation Yrotation Zrotation
								JOINT LeftShoulder_split
								{
									OFFSET 2.196100 4.412489 0.087492
									CHANNELS 3 Xrotation Yrotation Zrotation
									JOINT LeftArm
									{
										OFFSET 8.771219 -2.981674 -0.026999
										CHANNELS 3 Xrotation Yrotation Zrotation
										JOINT LeftForeArm
										{
											OFFSET 8.512804 0.000000 -0.000000
											CHANNELS 3 Xrotation Yrotation Zrotation
											JOINT LeftHand
											{
												OFFSET 18.484802 0.000000 -0.000000
												CHANNELS 3 Xrotation Yrotation Zrotation
												End Site
												{
													OFFSET 0 0 0
												}
											}
										}
									}
								}
							}
						}
						JOINT RightShoulder_virtual
						{
							OFFSET 0.000000 0.000000 0.000000
							CHANNELS 3 Xrotation Yrotation Zrotation
							JOINT RightShoulder
							{
								OFFSET -2.196100 4.412496 0.070690
								CHANNELS 3 Xrotation Yrotation Zrotation
								JOINT RightShoulder_split
								{
									OFFSET -2.196100 4.412496 0.070690
									CHANNELS 3 Xrotation Yrotation Zrotation
									JOINT RightArm
									{
										OFFSET -8.771282 -2.981682 -0.094208
										CHANNELS 3 Xrotation Yrotation Zrotation
										JOINT RightForeArm
										{
											OFFSET -8.494598 0.000000 0.000000
											CHANNELS 3 Xrotation Yrotation Zrotation
											JOINT RightHand
											{
												OFFSET -18.483803 0.000000 0.000001
												CHANNELS 3 Xrotation Yrotation Zrotation
												End Site
												{
													OFFSET 0 0 0
												}
											}
										}
									}
								}
							}
						}
					}
				}
			}
		}
	}
}
MOTION
Frames: 8
Frame Time: 0.03333333
-1.141001 32.156837 -2.715570 0.000000 0.000000 0.000000 -4.651660 -8.397671 3.022601 -13.765947 7.054651 3.357527 33.147021 7.916378 -3.738570 -15.593489 0.965498 -3.044313 1.983347 0.321400 0.824752 0.000000 0.000000 0.000000 -4.000679 -5.910772 3.155080 3.285315 -15.437872 -16.911104 22.627397 0.316979 -7.433322 -21.118378 -3.308218 15.114299 -4.525849 -1.480185 -0.235532 0.000000 0.000000 0.000000 -5.421511 -4.028724 1.295491 8.806746 3.388150 -4.504599 1.838832 0.510164 -1.096807 0.717990 0.747336 0.130871 0.000000 0.000000 0.000000 1.196014 0.041787 -0.137887 -4.658180 -1.140320 1.411926 8.164308 3.437591 -4.219408 0.000000 0.000000 0.000000 0.720042 0.382825 -0.850452 0.353995 2.970877 0.293095 -2.691908 -2.604824 0.145509 -12.872589 -5.247312 -65.302803 -1.691671 -34.590837 0.879977 0.000000 0.000000 0.000000 2.514815 0.194268 -0.629646 4.525282 12.026996 -5.758541 -1.204303 0.401380 -1.608690 -1.126914 2.442437 76.465832 -0.550819 36.719281 -0.171303 0.000000 0.000000 0.000000 
-1.235522 32.157547 -2.816500 0.000000 0.000000 0.000000 -4.455158 -8.107829 3.124223 -13.963973 7.093990 3.353017 33.195044 7.945954 -3.664476 -15.292536 1.133069 -3.290072 2.121094 0.305857 0.891463 0.000000 0.000000 0.000000 -3.894357 -5.943660 3.201146 2.996081 -15.370598 -16.847696 22.533325 0.085781 -7.519630 -21.465256 -3.313326 15.009102 -4.122390 -1.341683 -0.439629 0.000000 0.000000 0.000000 -5.063737 -4.207240 1.511012 8.874973 3.281684 -4.671463 1.828751 0.447582 -1.122686 0.729136 0.951467 -0.050589 0.000000 0.000000 0.000000 1.249906 0.008788 -0.163558 -4.674830 -0.976765 1.530986 7.944634 3.635702 -4.546384 0.000000 0.000000 0.000000 0.813778 0.326694 -0.850763 0.387084 2.844788 0.291311 -2.578864 -2.893956 0.223741 -13.317061 -5.213275 -65.264800 -1.872066 -35.248359 0.659448 0.000000 0.000000 0.000000 2.554472 0.133040 -0.643467 4.519561 12.219942 -5.649466 -1.266577 0.026563 -1.644610 -0.767277 2.300060 76.397735 -0.617811 36.803170 -0.043061 0.000000 0.000000 0.000000 
-1.346489 32.162598 -2.954967 0.000000 0.000000 0.000000 -4.132158 -7.764843 3.005071 -14.609952 7.179383 3.728114 33.010526 7.989299 -3.668442 -14.801515 1.554888 -3.644533 2.367200 0.295544 0.846832 0.000000 0.000000 0.000000 -3.688702 -6.149220 3.026843 2.445281 -15.186707 -16.628907 22.653332 0.113003 -7.401295 -21.688241 -3.370609 15.497347 -4.134538 -1.240848 -0.633726 0.000000 0.000000 0.000000 -4.496895 -4.678008 1.614561 9.128504 3.184654 -4.782252 1.829130 0.421318 -1.176170 0.787975 1.222472 -0.119101 0.000000 0.000000 0.000000 1.331064 0.026869 -0.244284 -4.717996 -0.697086 1.654831 7.252455 4.013102 -4.857427 0.000000 0.000000 0.000000 0.938902 0.332089 -0.858356 0.405007 2.637069 0.383834 -2.324610 -2.989012 0.269759 -13.872497 -5.339160 -65.162511 -1.706138 -35.781264 0.657578 0.000000 0.000000 0.000000 2.604075 0.110930 -0.663958 4.470333 12.332142 -5.624061 -1.298642 -0.131955 -1.696751 -0.181301 1.892269 76.339761 -0.705305 37.102527 0.069219 0.000000 0.000000 0.000000 
-1.445526 32.162392 -3.109791 0.000000 0.000000 0.000000 -3.716583 -7.487951 2.672635 -15.601952 7.373306 4.444885 32.614297 8.191534 -3.812457 -14.226262 2.282380 -3.853074 2.649126 0.294654 0.673081 0.000000 0.000000 0.000000 -3.387701 -6.503888 2.640200 1.720889 -14.952797 -16.204747 22.978573 0.352850 -7.134919 -22.072832 -3.457654 16.177880 -4.133096 -1.176132 -0.704794 0.000000 0.000000 0.000000 -3.844604 -5.408643 1.572932 9.531859 3.098325 -4.829073 1.858826 0.441470 -1.225833 0.875809 1.491360 -0.124863 0.000000 0.000000 0.000000 1.472887 0.106715 -0.348892 -4.793396 -0.356636 1.726065 6.094614 4.449483 -5.076793 0.000000 0.000000 0.000000 1.115560 0.404205 -0.846613 0.410417 2.373939 0.567995 -2.119210 -2.829466 0.228816 -14.602593 -5.613038 -65.158413 -1.227501 -35.811447 0.885081 0.000000 0.000000 0.000000 2.687849 0.138841 -0.670777 4.381900 12.374226 -5.763459 -1.376415 -0.075988 -1.748623 0.495465 1.369064 76.355791 -0.762437 37.494064 0.119636 0.000000 0.000000 0.000000 
-1.530947 32.152412 -3.271893 0.000000 0.000000 0.000000 -3.176497 -7.489747 2.191086 -16.788357 7.594466 5.399640 32.215082 8.622800 -4.158238 -13.717362 3.337131 -3.764607 2.906864 0.312921 0.423353 0.000000 0.000000 0.000000 -2.954758 -7.107889 2.115986 0.762926 -14.690692 -15.710417 23.564931 0.670712 -6.738419 -22.850750 -3.515002 16.528146 -3.314787 -1.127248 -0.552030 0.000000 0.000000 0.000000 -3.183545 -6.342021 1.399573 10.074376 3.027726 -4.804334 1.925905 0.510885 -1.247405 0.899839 1.588612 -0.005069 0.000000 0.000000 0.000000 1.677440 0.254174 -0.442503 -4.934322 -0.003663 1.695666 4.491370 4.822092 -5.161362 0.000000 0.000000 0.000000 1.338464 0.536384 -0.797067 0.406301 2.058642 0.749266 -2.065234 -2.650880 0.229750 -15.546296 -5.953782 -65.218136 -0.572485 -35.199233 1.265738 0.000000 0.000000 0.000000 2.805521 0.221369 -0.647282 4.267563 12.360478 -6.175388 -1.438429 0.105403 -1.655815 1.158854 0.928510 76.377047 -0.734577 37.812358 0.061096 0.000000 0.000000 0.000000 
-1.606050 32.121513 -3.476654 0.000000 0.000000 0.000000 -2.505819 -7.916746 1.675086 -18.062789 7.729234 6.430341 32.037993 9.219461 -4.694943 -13.307467 4.643213 -3.382916 3.132695 0.350398 0.163286 0.000000 0.000000 0.000000 -2.353899 -8.082702 1.582851 -0.675178 -14.451355 -15.402210 24.525676 1.087732 -6.178350 -23.653353 -3.453517 16.620246 -1.840482 -1.065472 -0.229393 0.000000 0.000000 0.000000 -2.586423 -7.467705 1.113656 10.714303 2.961672 -4.715303 2.029552 0.628975 -1.231749 0.755563 1.553447 0.195331 0.000000 0.000000 0.000000 1.932820 0.447384 -0.501029 -5.176501 0.311382 1.543066 2.512812 5.001050 -5.065785 0.000000 0.000000 0.000000 1.611466 0.712938 -0.711861 0.403401 1.725846 0.889072 -2.076318 -2.587497 0.300218 -16.574897 -6.244006 -65.192585 0.034990 -33.960855 1.622923 0.000000 0.000000 0.000000 2.961423 0.342051 -0.593119 4.147110 12.297381 -6.884205 -1.499794 0.378857 -1.409409 1.848865 0.753054 76.374964 -0.572674 37.957236 -0.129378 0.000000 0.000000 0.000000 
-1.675547 32.065384 -3.739765 0.000000 0.000000 0.000000 -1.774236 -8.888877 1.247593 -19.322930 7.602412 7.409282 32.133568 9.790051 -5.340425 -12.970696 6.095772 -2.831425 3.310343 0.405426 -0.051177 0.000000 0.000000 0.000000 -1.614338 -9.346924 1.166881 -2.819777 -14.122666 -15.456761 25.753139 1.939055 -5.499019 -23.871902 -3.191337 17.288623 -0.851091 -0.985444 0.017352 0.000000 0.000000 0.000000 -1.968008 -8.562482 0.786221 11.451884 2.870015 -4.584760 2.168640 0.782662 -1.198462 0.642983 1.286458 0.356367 0.000000 0.000000 0.000000 2.212866 0.666853 -0.519141 -5.542972 0.556522 1.312312 0.328090 5.001987 -4.838067 0.000000 0.000000 0.000000 1.922921 0.899200 -0.605726 0.409921 1.452473 0.950367 -2.052461 -2.794155 0.515544 -17.407063 -6.409008 -64.847100 0.359643 -32.190456 1.761157 0.000000 0.000000 0.000000 3.154432 0.492525 -0.529794 4.083009 12.239109 -7.819860 -1.502106 0.720342 -1.037065 2.655838 0.770046 76.189606 -0.299298 37.936090 -0.372348 0.000000 0.000000 0.000000 
-1.735582 31.989651 -4.084255 0.000000 0.000000 0.000000 -1.016258 -10.329532 1.009752 -20.546488 7.093982 8.192951 32.417089 10.159145 -6.004808 -12.537062 7.582616 -2.394205 3.458932 0.468800 -0.214800 0.000000 0.000000 0.000000 -0.758584 -10.791006 0.973804 -5.528835 -13.591687 -15.818518 27.162663 3.378433 -4.779184 -23.335498 -2.749770 18.838597 -0.783169 -0.882882 0.045110 0.000000 0.000000 0.000000 -1.302272 -9.540324 0.504101 12.312097 2.705796 -4.420803 2.320312 0.955224 -1.169857 0.632179 0.921376 0.338721 0.000000 0.000000 0.000000 2.485724 0.883090 -0.504397 -6.018672 0.686157 1.089423 -1.852646 4.804055 -4.542252 0.000000 0.000000 0.000000 2.218897 1.080805 -0.499238 0.420192 1.317738 0.939273 -1.933658 -3.237097 0.879489 -17.636537 -6.424712 -63.904992 0.269619 -30.249211 1.558243 0.000000 0.000000 0.000000 3.371056 0.644440 -0.476742 4.093267 12.228451 -8.871009 -1.292948 1.025613 -0.646879 3.601443 0.612335 75.739046 0.021755 37.852014 -0.597327 0.000000 0.000000 0.000000 
